<svg xmlns="http://www.w3.org/2000/svg" viewBox="0 0 1323.84 425.28"><defs><style>.cls-1{fill:#e02f31;}.cls-2{fill:#00a5ca;}</style></defs><title>Asset 6</title><g id="Layer_2" data-name="Layer 2"><g id="Layer_1-2" data-name="Layer 1"><path class="cls-1" d="M1323.84,207.36c-23.38,27.94-46.7,55.93-70.2,83.76-5.55,6.57-10.8,13.49-18.08,18.45a67.66,67.66,0,0,1-37.35,11.94q-13.43.29-26.87.27-389.23,0-778.47,0c-2.85,0-5.77.46-8.53-.72,11-1.73,20.1-6.63,27.07-15.64,7.14-9.23,14.83-18,22.24-27q39.29-47.8,78.55-95.62c16.1-19.63,36-33.92,60-42.19a114.61,114.61,0,0,1,37.11-6.36,47.67,47.67,0,0,1,10.47-.68h550.51c7.34,0,14.71.28,22-1,15.22-2.76,28.51-9,38.54-21.24,4.85-5.93,10.06-11.56,15-17.41,7.94-9.37,15.8-18.81,23.69-28.22q10.45-12.48,20.89-25t20.8-25c4.26-5.16,8.42-10.4,12.63-15.6Z"/><path class="cls-2" d="M0,226.56c1.62.19,2.14-1.2,2.92-2.13q13.47-16.23,26.89-32.5c9.45-11.47,18.51-23.29,28.41-34.35,14-15.64,31.79-23.86,53-23.88q95-.09,190,0,43.41,0,86.81-.13c3.19.06,6.38.18,9.57.18l197.92,0a117,117,0,0,1,13.87.47,114.61,114.61,0,0,0-37.11,6.36c-24,8.27-43.91,22.55-60,42.19Q473,230.59,433.65,278.37c-7.41,9-15.1,17.82-22.24,27-7,9-16,13.91-27.07,15.64-5.75.26-11.5.73-17.24.74q-118.79.07-237.58,0c-24.25-.06-43.71,9.16-59,27.73-18.18,22.11-36.42,44.18-54.48,66.4-4.27,5.25-9.36,8.59-16.06,9.42Z"/></g></g></svg>