<svg xmlns="http://www.w3.org/2000/svg" viewBox="0 0 35.8 27.67"><defs><style>.cls-1{fill:#fff;}.cls-2{fill:#010101;}</style></defs><title>Asset 17</title><g id="Layer_2" data-name="Layer 2"><g id="Layer_1-2" data-name="Layer 1"><polygon class="cls-1" points="21.16 26.04 22.78 26.04 22.78 24.41 24.41 24.41 24.41 21.16 26.04 21.16 26.04 16.27 27.67 16.27 27.67 13.02 34.18 13.02 34.18 11.39 35.8 11.39 35.8 8.14 34.18 8.14 34.18 6.51 19.53 6.51 19.53 4.88 21.16 4.88 21.16 0 19.53 0 18.72 0 16.27 0 16.27 1.63 14.65 1.63 14.65 3.25 11.39 3.25 11.39 4.88 8.14 4.88 8.14 6.51 4.88 6.51 4.88 8.14 1.63 8.14 0 8.14 0 22.78 0 24.41 4.88 24.41 4.88 26.04 9.77 26.04 9.77 27.67 21.16 27.67 21.16 26.04"/><rect class="cls-2" x="14.65" y="6.51" width="19.53" height="1.63"/><rect class="cls-2" x="34.18" y="8.14" width="1.63" height="3.26"/><rect class="cls-2" x="19.53" y="11.39" width="14.65" height="1.63"/><rect class="cls-2" x="26.04" y="13.02" width="1.63" height="3.26"/><rect class="cls-2" x="19.53" y="16.27" width="4.88" height="1.63"/><rect class="cls-2" x="24.41" y="16.27" width="1.63" height="4.88"/><rect class="cls-2" x="17.91" y="21.16" width="4.88" height="1.63"/><rect class="cls-2" x="22.78" y="21.16" width="1.63" height="3.26"/><rect class="cls-2" x="21.16" y="24.41" width="1.63" height="1.63"/><rect class="cls-2" x="9.77" y="26.04" width="11.39" height="1.63"/><rect class="cls-2" x="4.88" y="24.41" width="4.88" height="1.63"/><rect class="cls-2" y="22.78" width="4.88" height="1.63"/><rect class="cls-2" y="8.14" width="1.63" height="14.65"/><rect class="cls-2" x="17.9" y="4.88" width="1.63" height="1.63"/><rect class="cls-2" x="19.53" width="1.63" height="4.88"/><rect class="cls-2" x="16.27" width="3.26" height="1.63"/><rect class="cls-2" x="14.65" y="1.63" width="1.63" height="1.63"/><rect class="cls-2" x="11.39" y="3.26" width="3.26" height="1.63"/><rect class="cls-2" x="8.14" y="4.88" width="3.26" height="1.63"/><rect class="cls-2" x="4.88" y="6.51" width="3.26" height="1.63"/><rect class="cls-2" x="1.63" y="8.14" width="3.26" height="1.63"/></g></g></svg>