<svg xmlns="http://www.w3.org/2000/svg" viewBox="0 0 1323.84 514.58"><defs><style>.cls-1{fill:#ec8b22;}.cls-2{fill:#00993d;}</style></defs><title>Asset 4</title><g id="Layer_2" data-name="Layer 2"><g id="Layer_1-2" data-name="Layer 1"><path class="cls-1" d="M1323.84,0V288c-4.21,5.2-8.37,10.44-12.63,15.6q-10.35,12.56-20.8,25t-20.89,25c-7.89,9.41-15.75,18.85-23.69,28.22-5,5.85-10.16,11.48-15,17.41-10,12.26-23.33,18.48-38.54,21.24-7.27,1.32-14.64,1-22,1H619.79a47.67,47.67,0,0,0-10.47.68,117,117,0,0,0-13.87-.47l-197.92,0c-3.19,0-6.39-.12-9.58-.18a12.31,12.31,0,0,1,2.23-.83c11.4-1.9,20.33-7.51,27.63-16.59,16-19.94,32.5-39.51,48.75-59.27q24.68-30,49.31-60.06c8-9.74,15.74-19.75,25.43-28,19.89-17,42.25-28.59,68.36-32.46,2.07-.31,4.53.31,6.24-1.59,7.84-.08,15.67-.22,23.51-.22h426.65c11.83,0,23.66.27,35.47-.67,15.72-1.26,29.53-6.73,40.42-18.46,4.46-4.8,8.72-9.79,12.93-14.81q33.26-39.73,66.42-79.54,35.23-42.46,70.17-85.16c8.81-10.8,19.2-19.12,32.37-23.83"/><path class="cls-2" d="M0,284.16c2.37.85,2.87-1.46,3.78-2.55,6.8-8.06,13.42-16.28,20.12-24.42s13-16.57,21.88-22.69c10.67-7.37,22.32-11.62,35.31-12,2.08-.06,109.22,0,160.71,0H608.25c2.55,0,5.1.16,7.65.24-1.72,1.91-4.17,1.29-6.24,1.59-26.11,3.88-48.47,15.49-68.36,32.46-9.69,8.27-17.4,18.28-25.43,28q-24.71,30-49.31,60.06c-16.25,19.75-32.74,39.32-48.75,59.27-7.29,9.08-16.23,14.69-27.63,16.59a12,12,0,0,0-2.22.83q-43.4.07-86.81.13-95,0-190,0c-21.18,0-39,8.24-53,23.88-9.91,11.06-19,22.88-28.41,34.35Q16.39,496.2,2.92,512.43c-.78.94-1.29,2.32-2.92,2.13Z"/></g></g></svg>