<svg xmlns="http://www.w3.org/2000/svg" xmlns:xlink="http://www.w3.org/1999/xlink" viewBox="0 0 1037.9 251.11"><defs><style>.cls-1{fill:url(#linear-gradient);}.cls-2{fill:url(#linear-gradient-2);}.cls-3{fill:#00a5ca;}.cls-4{fill:url(#linear-gradient-3);}.cls-5,.cls-6{fill:#fff;}.cls-5{fill-rule:evenodd;}</style><linearGradient id="linear-gradient" x1="27.91" y1="200.95" x2="83.91" y2="200.95" gradientUnits="userSpaceOnUse"><stop offset="0" stop-color="#00a13e"/><stop offset="1" stop-color="#00883d"/></linearGradient><linearGradient id="linear-gradient-2" x1="16.41" y1="122.45" x2="238.41" y2="122.45" xlink:href="#linear-gradient"/><linearGradient id="linear-gradient-3" x1="200.91" y1="85.44" x2="663.1" y2="85.44" xlink:href="#linear-gradient"/></defs><title>Asset 15</title><g id="Layer_2" data-name="Layer 2"><g id="Layer_1-2" data-name="Layer 1"><rect class="cls-1" x="27.91" y="172.95" width="56" height="56"/><circle class="cls-2" cx="127.41" cy="122.45" r="111"/><path class="cls-3" d="M573.67,50.36c1.31-.09,2.61-.25,3.92-.25l456.38.06c1.31,0,2.62.1,3.93.15-4.64,8.33-9.84,16.05-14.82,24-5.21,8.33-10.58,16.49-15.83,24.78-8,12.59-18.35,19-30.38,21.13a92.68,92.68,0,0,1-16.08,1l-443,0c-1.66,0-3.34.3-5-.31.46-.92.86-1.91,1.38-2.76,8.23-13.41,16.56-26.73,24.7-40.23,9.05-15,20.5-24.4,34.76-27.52"/><path class="cls-4" d="M663.1,50.19c-13,3.12-23.37,12.51-31.61,27.52-7.41,13.5-15,26.82-22.46,40.23-.48.85-.84,1.84-1.26,2.76-1.19.05-2.38.16-3.58.16h-365a67.88,67.88,0,0,0-8-35.41C221.49,67.73,200.43,50,200.92,50h457c1.73,0,3.47.1,5.2.15"/><path class="cls-5" d="M251.11,122.33c0,67.55-55.19,122.32-123.27,122.32a123.41,123.41,0,0,1-59.59-15.22L0,251.11l22.25-65.62A121,121,0,0,1,4.57,122.33C4.57,54.77,59.75,0,127.85,0S251.11,54.77,251.11,122.33M127.85,19.48C70.68,19.48,24.2,65.61,24.2,122.33a101.78,101.78,0,0,0,19.74,60.3L31,220.81l39.82-12.65a103.64,103.64,0,0,0,57,17c57.14,0,103.64-46.13,103.64-102.83S185,19.48,127.85,19.48m62.25,131c-.76-1.25-2.78-2-5.79-3.5s-17.89-8.76-20.65-9.75-4.8-1.5-6.8,1.5-7.81,9.75-9.58,11.76-3.52,2.25-6.54.75-12.77-4.67-24.31-14.87a91.22,91.22,0,0,1-16.81-20.77c-1.75-3-.17-4.62,1.32-6.11s3-3.5,4.54-5.25a20.58,20.58,0,0,0,3-5,5.44,5.44,0,0,0-.26-5.25c-.75-1.5-6.8-16.25-9.32-22.26S93.9,66,92.12,66a43.58,43.58,0,0,0-5,.52s-6.06.75-8.82,3.75-10.57,10.26-10.57,25,10.82,29,12.33,31,20.9,33.27,51.62,45.27,30.72,8,36.26,7.49,17.87-7.25,20.4-14.25,2.52-13,1.77-14.25"/><path class="cls-6" d="M623.92,83.68c5.66,0,10.18,3.94,10.18,9.83a10.18,10.18,0,0,1-20.36,0C613.74,87.62,618.26,83.68,623.92,83.68Zm0,15.91c3.71,0,5.42-3.16,5.42-6.08s-1.72-6-5.42-6-5.42,3.08-5.42,6S620.21,99.59,623.92,99.59ZM625,75.33h5.3L624.78,81h-3.67Z"/></g></g></svg>